<mxfile host="app.diagrams.net" agent="Mozilla/5.0 (Macintosh; Intel Mac OS X 10_15_7) AppleWebKit/537.36 (KHTML, like Gecko) Chrome/140.0.0.0 Safari/537.36" version="28.2.2" pages="3">
  <diagram name="Вариант 1" id="-H_mtQnk-PTXWXPvYvuk">
    <mxGraphModel dx="1343" dy="659" grid="1" gridSize="10" guides="1" tooltips="1" connect="1" arrows="1" fold="1" page="1" pageScale="1" pageWidth="1169" pageHeight="827" math="0" shadow="0">
      <root>
        <mxCell id="0" />
        <mxCell id="1" parent="0" />
        <mxCell id="zA23MoTUsTF4_91t8viU-2" value="MongoDB" style="shape=cylinder3;whiteSpace=wrap;html=1;boundedLbl=1;backgroundOutline=1;size=15;" parent="1" vertex="1">
          <mxGeometry x="560" y="280" width="60" height="80" as="geometry" />
        </mxCell>
        <mxCell id="zA23MoTUsTF4_91t8viU-3" value="pymongo-api" style="rounded=1;whiteSpace=wrap;html=1;" parent="1" vertex="1">
          <mxGeometry x="360" y="290" width="120" height="60" as="geometry" />
        </mxCell>
        <mxCell id="zA23MoTUsTF4_91t8viU-4" style="edgeStyle=orthogonalEdgeStyle;rounded=0;orthogonalLoop=1;jettySize=auto;html=1;exitX=1;exitY=0.5;exitDx=0;exitDy=0;entryX=0;entryY=0.5;entryDx=0;entryDy=0;entryPerimeter=0;" parent="1" source="zA23MoTUsTF4_91t8viU-3" target="zA23MoTUsTF4_91t8viU-2" edge="1">
          <mxGeometry relative="1" as="geometry" />
        </mxCell>
        <mxCell id="2B5q6vURiEeLlYExNRzU-3" style="edgeStyle=orthogonalEdgeStyle;rounded=0;orthogonalLoop=1;jettySize=auto;html=1;exitX=0;exitY=0.5;exitDx=0;exitDy=0;entryX=0.5;entryY=0;entryDx=0;entryDy=0;" edge="1" parent="1" source="2B5q6vURiEeLlYExNRzU-1" target="2B5q6vURiEeLlYExNRzU-2">
          <mxGeometry relative="1" as="geometry" />
        </mxCell>
        <mxCell id="2B5q6vURiEeLlYExNRzU-1" value="driver" style="rounded=1;whiteSpace=wrap;html=1;" vertex="1" parent="1">
          <mxGeometry x="360" y="400" width="120" height="60" as="geometry" />
        </mxCell>
        <mxCell id="2B5q6vURiEeLlYExNRzU-8" style="edgeStyle=orthogonalEdgeStyle;rounded=0;orthogonalLoop=1;jettySize=auto;html=1;exitX=0.5;exitY=1;exitDx=0;exitDy=0;entryX=0.5;entryY=0;entryDx=0;entryDy=0;" edge="1" parent="1" source="2B5q6vURiEeLlYExNRzU-2" target="2B5q6vURiEeLlYExNRzU-6">
          <mxGeometry relative="1" as="geometry" />
        </mxCell>
        <mxCell id="2B5q6vURiEeLlYExNRzU-2" value="router" style="rounded=1;whiteSpace=wrap;html=1;" vertex="1" parent="1">
          <mxGeometry x="260" y="500" width="120" height="60" as="geometry" />
        </mxCell>
        <mxCell id="2B5q6vURiEeLlYExNRzU-9" style="edgeStyle=orthogonalEdgeStyle;rounded=0;orthogonalLoop=1;jettySize=auto;html=1;exitX=0.5;exitY=1;exitDx=0;exitDy=0;entryX=0.5;entryY=0;entryDx=0;entryDy=0;startArrow=none;startFill=0;" edge="1" parent="1" source="2B5q6vURiEeLlYExNRzU-4" target="2B5q6vURiEeLlYExNRzU-7">
          <mxGeometry relative="1" as="geometry" />
        </mxCell>
        <mxCell id="2B5q6vURiEeLlYExNRzU-13" style="edgeStyle=orthogonalEdgeStyle;rounded=0;orthogonalLoop=1;jettySize=auto;html=1;exitX=0.75;exitY=0;exitDx=0;exitDy=0;entryX=0;entryY=0.5;entryDx=0;entryDy=0;" edge="1" parent="1" source="2B5q6vURiEeLlYExNRzU-4" target="2B5q6vURiEeLlYExNRzU-12">
          <mxGeometry relative="1" as="geometry" />
        </mxCell>
        <mxCell id="2B5q6vURiEeLlYExNRzU-4" value="router" style="rounded=1;whiteSpace=wrap;html=1;" vertex="1" parent="1">
          <mxGeometry x="465" y="500" width="120" height="60" as="geometry" />
        </mxCell>
        <mxCell id="2B5q6vURiEeLlYExNRzU-5" style="edgeStyle=orthogonalEdgeStyle;rounded=0;orthogonalLoop=1;jettySize=auto;html=1;exitX=1;exitY=0.5;exitDx=0;exitDy=0;" edge="1" parent="1" source="2B5q6vURiEeLlYExNRzU-1">
          <mxGeometry relative="1" as="geometry">
            <mxPoint x="525" y="499" as="targetPoint" />
            <Array as="points">
              <mxPoint x="525" y="430" />
              <mxPoint x="525" y="499" />
            </Array>
          </mxGeometry>
        </mxCell>
        <mxCell id="2B5q6vURiEeLlYExNRzU-6" value="shard-1" style="rounded=1;whiteSpace=wrap;html=1;" vertex="1" parent="1">
          <mxGeometry x="260" y="600" width="120" height="60" as="geometry" />
        </mxCell>
        <mxCell id="2B5q6vURiEeLlYExNRzU-14" style="edgeStyle=orthogonalEdgeStyle;rounded=0;orthogonalLoop=1;jettySize=auto;html=1;exitX=1;exitY=0.5;exitDx=0;exitDy=0;entryX=0.5;entryY=1;entryDx=0;entryDy=0;" edge="1" parent="1" source="2B5q6vURiEeLlYExNRzU-7" target="2B5q6vURiEeLlYExNRzU-12">
          <mxGeometry relative="1" as="geometry" />
        </mxCell>
        <mxCell id="2B5q6vURiEeLlYExNRzU-7" value="shard-2" style="rounded=1;whiteSpace=wrap;html=1;" vertex="1" parent="1">
          <mxGeometry x="465" y="600" width="120" height="60" as="geometry" />
        </mxCell>
        <mxCell id="2B5q6vURiEeLlYExNRzU-10" value="" style="endArrow=none;html=1;rounded=0;" edge="1" parent="1">
          <mxGeometry width="50" height="50" relative="1" as="geometry">
            <mxPoint x="320" y="580" as="sourcePoint" />
            <mxPoint x="525" y="580" as="targetPoint" />
          </mxGeometry>
        </mxCell>
        <mxCell id="2B5q6vURiEeLlYExNRzU-11" value="" style="endArrow=none;dashed=1;html=1;dashPattern=1 3;strokeWidth=2;rounded=0;" edge="1" parent="1">
          <mxGeometry width="50" height="50" relative="1" as="geometry">
            <mxPoint x="390" y="530" as="sourcePoint" />
            <mxPoint x="460" y="530" as="targetPoint" />
          </mxGeometry>
        </mxCell>
        <mxCell id="2B5q6vURiEeLlYExNRzU-12" value="configSrv" style="rounded=1;whiteSpace=wrap;html=1;" vertex="1" parent="1">
          <mxGeometry x="620" y="400" width="120" height="60" as="geometry" />
        </mxCell>
      </root>
    </mxGraphModel>
  </diagram>
  <diagram id="DFp6-TRvL1h2hGJ3ZDPj" name="Вариант 2">
    <mxGraphModel dx="1410" dy="692" grid="1" gridSize="10" guides="1" tooltips="1" connect="1" arrows="1" fold="1" page="1" pageScale="1" pageWidth="827" pageHeight="1169" math="0" shadow="0">
      <root>
        <mxCell id="0" />
        <mxCell id="1" parent="0" />
        <mxCell id="f30S9cjRNyNZKGZ_jvqC-1" value="MongoDB" style="shape=cylinder3;whiteSpace=wrap;html=1;boundedLbl=1;backgroundOutline=1;size=15;" vertex="1" parent="1">
          <mxGeometry x="474" y="150" width="60" height="80" as="geometry" />
        </mxCell>
        <mxCell id="f30S9cjRNyNZKGZ_jvqC-2" value="pymongo-api" style="rounded=1;whiteSpace=wrap;html=1;" vertex="1" parent="1">
          <mxGeometry x="274" y="160" width="120" height="60" as="geometry" />
        </mxCell>
        <mxCell id="f30S9cjRNyNZKGZ_jvqC-3" style="edgeStyle=orthogonalEdgeStyle;rounded=0;orthogonalLoop=1;jettySize=auto;html=1;exitX=1;exitY=0.5;exitDx=0;exitDy=0;entryX=0;entryY=0.5;entryDx=0;entryDy=0;entryPerimeter=0;" edge="1" parent="1" source="f30S9cjRNyNZKGZ_jvqC-2" target="f30S9cjRNyNZKGZ_jvqC-1">
          <mxGeometry relative="1" as="geometry" />
        </mxCell>
        <mxCell id="f30S9cjRNyNZKGZ_jvqC-4" style="edgeStyle=orthogonalEdgeStyle;rounded=0;orthogonalLoop=1;jettySize=auto;html=1;exitX=0;exitY=0.5;exitDx=0;exitDy=0;entryX=0.5;entryY=0;entryDx=0;entryDy=0;" edge="1" parent="1" source="f30S9cjRNyNZKGZ_jvqC-5" target="f30S9cjRNyNZKGZ_jvqC-7">
          <mxGeometry relative="1" as="geometry" />
        </mxCell>
        <mxCell id="f30S9cjRNyNZKGZ_jvqC-5" value="driver" style="rounded=1;whiteSpace=wrap;html=1;" vertex="1" parent="1">
          <mxGeometry x="274" y="270" width="120" height="60" as="geometry" />
        </mxCell>
        <mxCell id="f30S9cjRNyNZKGZ_jvqC-6" style="edgeStyle=orthogonalEdgeStyle;rounded=0;orthogonalLoop=1;jettySize=auto;html=1;exitX=0.5;exitY=1;exitDx=0;exitDy=0;entryX=0.5;entryY=0;entryDx=0;entryDy=0;" edge="1" parent="1" source="f30S9cjRNyNZKGZ_jvqC-7" target="f30S9cjRNyNZKGZ_jvqC-12">
          <mxGeometry relative="1" as="geometry" />
        </mxCell>
        <mxCell id="f30S9cjRNyNZKGZ_jvqC-7" value="router" style="rounded=1;whiteSpace=wrap;html=1;" vertex="1" parent="1">
          <mxGeometry x="174" y="370" width="120" height="60" as="geometry" />
        </mxCell>
        <mxCell id="f30S9cjRNyNZKGZ_jvqC-8" style="edgeStyle=orthogonalEdgeStyle;rounded=0;orthogonalLoop=1;jettySize=auto;html=1;exitX=0.5;exitY=1;exitDx=0;exitDy=0;entryX=0.5;entryY=0;entryDx=0;entryDy=0;startArrow=none;startFill=0;" edge="1" parent="1" source="f30S9cjRNyNZKGZ_jvqC-10" target="f30S9cjRNyNZKGZ_jvqC-14">
          <mxGeometry relative="1" as="geometry" />
        </mxCell>
        <mxCell id="f30S9cjRNyNZKGZ_jvqC-9" style="edgeStyle=orthogonalEdgeStyle;rounded=0;orthogonalLoop=1;jettySize=auto;html=1;exitX=0.75;exitY=0;exitDx=0;exitDy=0;entryX=0;entryY=0.5;entryDx=0;entryDy=0;" edge="1" parent="1" source="f30S9cjRNyNZKGZ_jvqC-10" target="f30S9cjRNyNZKGZ_jvqC-17">
          <mxGeometry relative="1" as="geometry" />
        </mxCell>
        <mxCell id="f30S9cjRNyNZKGZ_jvqC-10" value="router" style="rounded=1;whiteSpace=wrap;html=1;" vertex="1" parent="1">
          <mxGeometry x="379" y="370" width="120" height="60" as="geometry" />
        </mxCell>
        <mxCell id="f30S9cjRNyNZKGZ_jvqC-11" style="edgeStyle=orthogonalEdgeStyle;rounded=0;orthogonalLoop=1;jettySize=auto;html=1;exitX=1;exitY=0.5;exitDx=0;exitDy=0;" edge="1" parent="1" source="f30S9cjRNyNZKGZ_jvqC-5">
          <mxGeometry relative="1" as="geometry">
            <mxPoint x="439" y="369" as="targetPoint" />
            <Array as="points">
              <mxPoint x="439" y="300" />
              <mxPoint x="439" y="369" />
            </Array>
          </mxGeometry>
        </mxCell>
        <mxCell id="5TXhEsDO4JU4A6egBetb-2" style="edgeStyle=orthogonalEdgeStyle;rounded=0;orthogonalLoop=1;jettySize=auto;html=1;exitX=0.5;exitY=1;exitDx=0;exitDy=0;entryX=0.5;entryY=0;entryDx=0;entryDy=0;startArrow=classic;startFill=1;" edge="1" parent="1" source="f30S9cjRNyNZKGZ_jvqC-12" target="5TXhEsDO4JU4A6egBetb-1">
          <mxGeometry relative="1" as="geometry" />
        </mxCell>
        <mxCell id="f30S9cjRNyNZKGZ_jvqC-12" value="shard-1" style="rounded=1;whiteSpace=wrap;html=1;" vertex="1" parent="1">
          <mxGeometry x="174" y="470" width="120" height="60" as="geometry" />
        </mxCell>
        <mxCell id="f30S9cjRNyNZKGZ_jvqC-13" style="edgeStyle=orthogonalEdgeStyle;rounded=0;orthogonalLoop=1;jettySize=auto;html=1;exitX=1;exitY=0.5;exitDx=0;exitDy=0;entryX=0.5;entryY=1;entryDx=0;entryDy=0;" edge="1" parent="1" source="f30S9cjRNyNZKGZ_jvqC-14" target="f30S9cjRNyNZKGZ_jvqC-17">
          <mxGeometry relative="1" as="geometry" />
        </mxCell>
        <mxCell id="5TXhEsDO4JU4A6egBetb-4" style="edgeStyle=orthogonalEdgeStyle;rounded=0;orthogonalLoop=1;jettySize=auto;html=1;exitX=0.5;exitY=1;exitDx=0;exitDy=0;entryX=0.5;entryY=0;entryDx=0;entryDy=0;startArrow=classic;startFill=1;" edge="1" parent="1" source="f30S9cjRNyNZKGZ_jvqC-14" target="5TXhEsDO4JU4A6egBetb-3">
          <mxGeometry relative="1" as="geometry" />
        </mxCell>
        <mxCell id="f30S9cjRNyNZKGZ_jvqC-14" value="shard-2" style="rounded=1;whiteSpace=wrap;html=1;" vertex="1" parent="1">
          <mxGeometry x="379" y="470" width="120" height="60" as="geometry" />
        </mxCell>
        <mxCell id="f30S9cjRNyNZKGZ_jvqC-15" value="" style="endArrow=none;html=1;rounded=0;" edge="1" parent="1">
          <mxGeometry width="50" height="50" relative="1" as="geometry">
            <mxPoint x="234" y="450" as="sourcePoint" />
            <mxPoint x="439" y="450" as="targetPoint" />
          </mxGeometry>
        </mxCell>
        <mxCell id="f30S9cjRNyNZKGZ_jvqC-16" value="" style="endArrow=none;dashed=1;html=1;dashPattern=1 3;strokeWidth=2;rounded=0;" edge="1" parent="1">
          <mxGeometry width="50" height="50" relative="1" as="geometry">
            <mxPoint x="304" y="400" as="sourcePoint" />
            <mxPoint x="374" y="400" as="targetPoint" />
          </mxGeometry>
        </mxCell>
        <mxCell id="f30S9cjRNyNZKGZ_jvqC-17" value="configSrv" style="rounded=1;whiteSpace=wrap;html=1;" vertex="1" parent="1">
          <mxGeometry x="534" y="270" width="120" height="60" as="geometry" />
        </mxCell>
        <mxCell id="5TXhEsDO4JU4A6egBetb-5" style="edgeStyle=orthogonalEdgeStyle;rounded=0;orthogonalLoop=1;jettySize=auto;html=1;exitX=1;exitY=0.5;exitDx=0;exitDy=0;entryX=0;entryY=0.5;entryDx=0;entryDy=0;startArrow=classic;startFill=1;" edge="1" parent="1" source="5TXhEsDO4JU4A6egBetb-1" target="5TXhEsDO4JU4A6egBetb-3">
          <mxGeometry relative="1" as="geometry" />
        </mxCell>
        <mxCell id="5TXhEsDO4JU4A6egBetb-12" style="edgeStyle=orthogonalEdgeStyle;rounded=0;orthogonalLoop=1;jettySize=auto;html=1;exitX=0.5;exitY=1;exitDx=0;exitDy=0;entryX=0.5;entryY=0;entryDx=0;entryDy=0;" edge="1" parent="1" source="5TXhEsDO4JU4A6egBetb-1" target="5TXhEsDO4JU4A6egBetb-8">
          <mxGeometry relative="1" as="geometry" />
        </mxCell>
        <mxCell id="5TXhEsDO4JU4A6egBetb-13" style="edgeStyle=orthogonalEdgeStyle;rounded=0;orthogonalLoop=1;jettySize=auto;html=1;exitX=0.5;exitY=1;exitDx=0;exitDy=0;entryX=0.5;entryY=0;entryDx=0;entryDy=0;startArrow=classic;startFill=1;" edge="1" parent="1" source="5TXhEsDO4JU4A6egBetb-1" target="5TXhEsDO4JU4A6egBetb-9">
          <mxGeometry relative="1" as="geometry" />
        </mxCell>
        <mxCell id="5TXhEsDO4JU4A6egBetb-1" value="Master A" style="rounded=1;whiteSpace=wrap;html=1;" vertex="1" parent="1">
          <mxGeometry x="174" y="570" width="120" height="60" as="geometry" />
        </mxCell>
        <mxCell id="5TXhEsDO4JU4A6egBetb-14" style="edgeStyle=orthogonalEdgeStyle;rounded=0;orthogonalLoop=1;jettySize=auto;html=1;exitX=0.5;exitY=1;exitDx=0;exitDy=0;entryX=0.5;entryY=0;entryDx=0;entryDy=0;" edge="1" parent="1" source="5TXhEsDO4JU4A6egBetb-3" target="5TXhEsDO4JU4A6egBetb-10">
          <mxGeometry relative="1" as="geometry" />
        </mxCell>
        <mxCell id="5TXhEsDO4JU4A6egBetb-15" style="edgeStyle=orthogonalEdgeStyle;rounded=0;orthogonalLoop=1;jettySize=auto;html=1;exitX=0.5;exitY=1;exitDx=0;exitDy=0;startArrow=classic;startFill=1;" edge="1" parent="1" source="5TXhEsDO4JU4A6egBetb-3" target="5TXhEsDO4JU4A6egBetb-11">
          <mxGeometry relative="1" as="geometry" />
        </mxCell>
        <mxCell id="5TXhEsDO4JU4A6egBetb-3" value="Master B" style="rounded=1;whiteSpace=wrap;html=1;" vertex="1" parent="1">
          <mxGeometry x="379" y="570" width="120" height="60" as="geometry" />
        </mxCell>
        <mxCell id="5TXhEsDO4JU4A6egBetb-6" value="Multi-master&lt;div&gt;replication&lt;/div&gt;" style="text;html=1;align=center;verticalAlign=middle;resizable=0;points=[];autosize=1;strokeColor=none;fillColor=none;" vertex="1" parent="1">
          <mxGeometry x="289" y="565" width="90" height="40" as="geometry" />
        </mxCell>
        <mxCell id="5TXhEsDO4JU4A6egBetb-8" value="Slave A1" style="rounded=1;whiteSpace=wrap;html=1;" vertex="1" parent="1">
          <mxGeometry x="150" y="670" width="80" height="60" as="geometry" />
        </mxCell>
        <mxCell id="5TXhEsDO4JU4A6egBetb-9" value="Slave A2" style="rounded=1;whiteSpace=wrap;html=1;" vertex="1" parent="1">
          <mxGeometry x="240" y="670" width="80" height="60" as="geometry" />
        </mxCell>
        <mxCell id="5TXhEsDO4JU4A6egBetb-10" value="Slave B1" style="rounded=1;whiteSpace=wrap;html=1;" vertex="1" parent="1">
          <mxGeometry x="354" y="670" width="80" height="60" as="geometry" />
        </mxCell>
        <mxCell id="5TXhEsDO4JU4A6egBetb-11" value="Slave B2" style="rounded=1;whiteSpace=wrap;html=1;" vertex="1" parent="1">
          <mxGeometry x="444" y="670" width="80" height="60" as="geometry" />
        </mxCell>
      </root>
    </mxGraphModel>
  </diagram>
  <diagram id="9H97Bio6wV-uo3r43311" name="Вариант 3">
    <mxGraphModel dx="1410" dy="692" grid="1" gridSize="10" guides="1" tooltips="1" connect="1" arrows="1" fold="1" page="1" pageScale="1" pageWidth="827" pageHeight="1169" math="0" shadow="0">
      <root>
        <mxCell id="0" />
        <mxCell id="1" parent="0" />
        <mxCell id="o92Cv8JYWG6bi7Cdgzpr-1" value="MongoDB" style="shape=cylinder3;whiteSpace=wrap;html=1;boundedLbl=1;backgroundOutline=1;size=15;" vertex="1" parent="1">
          <mxGeometry x="594" y="440" width="60" height="80" as="geometry" />
        </mxCell>
        <mxCell id="o92Cv8JYWG6bi7Cdgzpr-2" value="pymongo-api" style="rounded=1;whiteSpace=wrap;html=1;" vertex="1" parent="1">
          <mxGeometry x="394" y="450" width="120" height="60" as="geometry" />
        </mxCell>
        <mxCell id="o92Cv8JYWG6bi7Cdgzpr-3" style="edgeStyle=orthogonalEdgeStyle;rounded=0;orthogonalLoop=1;jettySize=auto;html=1;exitX=1;exitY=0.5;exitDx=0;exitDy=0;entryX=0;entryY=0.5;entryDx=0;entryDy=0;entryPerimeter=0;" edge="1" parent="1" source="o92Cv8JYWG6bi7Cdgzpr-2" target="o92Cv8JYWG6bi7Cdgzpr-1">
          <mxGeometry relative="1" as="geometry" />
        </mxCell>
        <mxCell id="o92Cv8JYWG6bi7Cdgzpr-4" style="edgeStyle=orthogonalEdgeStyle;rounded=0;orthogonalLoop=1;jettySize=auto;html=1;exitX=0;exitY=0.5;exitDx=0;exitDy=0;entryX=0.5;entryY=0;entryDx=0;entryDy=0;" edge="1" parent="1" source="o92Cv8JYWG6bi7Cdgzpr-5" target="o92Cv8JYWG6bi7Cdgzpr-7">
          <mxGeometry relative="1" as="geometry" />
        </mxCell>
        <mxCell id="o92Cv8JYWG6bi7Cdgzpr-5" value="driver" style="rounded=1;whiteSpace=wrap;html=1;" vertex="1" parent="1">
          <mxGeometry x="394" y="620" width="120" height="60" as="geometry" />
        </mxCell>
        <mxCell id="o92Cv8JYWG6bi7Cdgzpr-6" style="edgeStyle=orthogonalEdgeStyle;rounded=0;orthogonalLoop=1;jettySize=auto;html=1;exitX=0.5;exitY=1;exitDx=0;exitDy=0;entryX=0.5;entryY=0;entryDx=0;entryDy=0;" edge="1" parent="1" source="o92Cv8JYWG6bi7Cdgzpr-7" target="o92Cv8JYWG6bi7Cdgzpr-13">
          <mxGeometry relative="1" as="geometry" />
        </mxCell>
        <mxCell id="o92Cv8JYWG6bi7Cdgzpr-7" value="router" style="rounded=1;whiteSpace=wrap;html=1;" vertex="1" parent="1">
          <mxGeometry x="294" y="720" width="120" height="60" as="geometry" />
        </mxCell>
        <mxCell id="o92Cv8JYWG6bi7Cdgzpr-8" style="edgeStyle=orthogonalEdgeStyle;rounded=0;orthogonalLoop=1;jettySize=auto;html=1;exitX=0.5;exitY=1;exitDx=0;exitDy=0;entryX=0.5;entryY=0;entryDx=0;entryDy=0;startArrow=none;startFill=0;" edge="1" parent="1" source="o92Cv8JYWG6bi7Cdgzpr-10" target="o92Cv8JYWG6bi7Cdgzpr-16">
          <mxGeometry relative="1" as="geometry" />
        </mxCell>
        <mxCell id="o92Cv8JYWG6bi7Cdgzpr-9" style="edgeStyle=orthogonalEdgeStyle;rounded=0;orthogonalLoop=1;jettySize=auto;html=1;exitX=0.75;exitY=0;exitDx=0;exitDy=0;entryX=0;entryY=0.5;entryDx=0;entryDy=0;" edge="1" parent="1" source="o92Cv8JYWG6bi7Cdgzpr-10" target="o92Cv8JYWG6bi7Cdgzpr-19">
          <mxGeometry relative="1" as="geometry" />
        </mxCell>
        <mxCell id="o92Cv8JYWG6bi7Cdgzpr-10" value="router" style="rounded=1;whiteSpace=wrap;html=1;" vertex="1" parent="1">
          <mxGeometry x="499" y="720" width="120" height="60" as="geometry" />
        </mxCell>
        <mxCell id="o92Cv8JYWG6bi7Cdgzpr-11" style="edgeStyle=orthogonalEdgeStyle;rounded=0;orthogonalLoop=1;jettySize=auto;html=1;exitX=1;exitY=0.5;exitDx=0;exitDy=0;" edge="1" parent="1" source="o92Cv8JYWG6bi7Cdgzpr-5">
          <mxGeometry relative="1" as="geometry">
            <mxPoint x="559" y="719" as="targetPoint" />
            <Array as="points">
              <mxPoint x="559" y="650" />
              <mxPoint x="559" y="719" />
            </Array>
          </mxGeometry>
        </mxCell>
        <mxCell id="o92Cv8JYWG6bi7Cdgzpr-12" style="edgeStyle=orthogonalEdgeStyle;rounded=0;orthogonalLoop=1;jettySize=auto;html=1;exitX=0.5;exitY=1;exitDx=0;exitDy=0;entryX=0.5;entryY=0;entryDx=0;entryDy=0;startArrow=classic;startFill=1;" edge="1" parent="1" source="o92Cv8JYWG6bi7Cdgzpr-13" target="o92Cv8JYWG6bi7Cdgzpr-23">
          <mxGeometry relative="1" as="geometry" />
        </mxCell>
        <mxCell id="o92Cv8JYWG6bi7Cdgzpr-13" value="shard-1" style="rounded=1;whiteSpace=wrap;html=1;" vertex="1" parent="1">
          <mxGeometry x="294" y="820" width="120" height="60" as="geometry" />
        </mxCell>
        <mxCell id="o92Cv8JYWG6bi7Cdgzpr-14" style="edgeStyle=orthogonalEdgeStyle;rounded=0;orthogonalLoop=1;jettySize=auto;html=1;exitX=1;exitY=0.5;exitDx=0;exitDy=0;entryX=0.5;entryY=1;entryDx=0;entryDy=0;" edge="1" parent="1" source="o92Cv8JYWG6bi7Cdgzpr-16" target="o92Cv8JYWG6bi7Cdgzpr-19">
          <mxGeometry relative="1" as="geometry" />
        </mxCell>
        <mxCell id="o92Cv8JYWG6bi7Cdgzpr-15" style="edgeStyle=orthogonalEdgeStyle;rounded=0;orthogonalLoop=1;jettySize=auto;html=1;exitX=0.5;exitY=1;exitDx=0;exitDy=0;entryX=0.5;entryY=0;entryDx=0;entryDy=0;startArrow=classic;startFill=1;" edge="1" parent="1" source="o92Cv8JYWG6bi7Cdgzpr-16" target="o92Cv8JYWG6bi7Cdgzpr-26">
          <mxGeometry relative="1" as="geometry" />
        </mxCell>
        <mxCell id="o92Cv8JYWG6bi7Cdgzpr-16" value="shard-2" style="rounded=1;whiteSpace=wrap;html=1;" vertex="1" parent="1">
          <mxGeometry x="499" y="820" width="120" height="60" as="geometry" />
        </mxCell>
        <mxCell id="o92Cv8JYWG6bi7Cdgzpr-17" value="" style="endArrow=none;html=1;rounded=0;" edge="1" parent="1">
          <mxGeometry width="50" height="50" relative="1" as="geometry">
            <mxPoint x="354" y="800" as="sourcePoint" />
            <mxPoint x="559" y="800" as="targetPoint" />
          </mxGeometry>
        </mxCell>
        <mxCell id="o92Cv8JYWG6bi7Cdgzpr-18" value="" style="endArrow=none;dashed=1;html=1;dashPattern=1 3;strokeWidth=2;rounded=0;" edge="1" parent="1">
          <mxGeometry width="50" height="50" relative="1" as="geometry">
            <mxPoint x="424" y="750" as="sourcePoint" />
            <mxPoint x="494" y="750" as="targetPoint" />
          </mxGeometry>
        </mxCell>
        <mxCell id="o92Cv8JYWG6bi7Cdgzpr-19" value="configSrv" style="rounded=1;whiteSpace=wrap;html=1;" vertex="1" parent="1">
          <mxGeometry x="654" y="620" width="120" height="60" as="geometry" />
        </mxCell>
        <mxCell id="o92Cv8JYWG6bi7Cdgzpr-20" style="edgeStyle=orthogonalEdgeStyle;rounded=0;orthogonalLoop=1;jettySize=auto;html=1;exitX=1;exitY=0.5;exitDx=0;exitDy=0;entryX=0;entryY=0.5;entryDx=0;entryDy=0;startArrow=classic;startFill=1;" edge="1" parent="1" source="o92Cv8JYWG6bi7Cdgzpr-23" target="o92Cv8JYWG6bi7Cdgzpr-26">
          <mxGeometry relative="1" as="geometry" />
        </mxCell>
        <mxCell id="o92Cv8JYWG6bi7Cdgzpr-21" style="edgeStyle=orthogonalEdgeStyle;rounded=0;orthogonalLoop=1;jettySize=auto;html=1;exitX=0.5;exitY=1;exitDx=0;exitDy=0;entryX=0.5;entryY=0;entryDx=0;entryDy=0;" edge="1" parent="1" source="o92Cv8JYWG6bi7Cdgzpr-23" target="o92Cv8JYWG6bi7Cdgzpr-28">
          <mxGeometry relative="1" as="geometry" />
        </mxCell>
        <mxCell id="o92Cv8JYWG6bi7Cdgzpr-22" style="edgeStyle=orthogonalEdgeStyle;rounded=0;orthogonalLoop=1;jettySize=auto;html=1;exitX=0.5;exitY=1;exitDx=0;exitDy=0;entryX=0.5;entryY=0;entryDx=0;entryDy=0;startArrow=classic;startFill=1;" edge="1" parent="1" source="o92Cv8JYWG6bi7Cdgzpr-23" target="o92Cv8JYWG6bi7Cdgzpr-29">
          <mxGeometry relative="1" as="geometry" />
        </mxCell>
        <mxCell id="o92Cv8JYWG6bi7Cdgzpr-23" value="Master A" style="rounded=1;whiteSpace=wrap;html=1;" vertex="1" parent="1">
          <mxGeometry x="294" y="920" width="120" height="60" as="geometry" />
        </mxCell>
        <mxCell id="o92Cv8JYWG6bi7Cdgzpr-24" style="edgeStyle=orthogonalEdgeStyle;rounded=0;orthogonalLoop=1;jettySize=auto;html=1;exitX=0.5;exitY=1;exitDx=0;exitDy=0;entryX=0.5;entryY=0;entryDx=0;entryDy=0;" edge="1" parent="1" source="o92Cv8JYWG6bi7Cdgzpr-26" target="o92Cv8JYWG6bi7Cdgzpr-30">
          <mxGeometry relative="1" as="geometry" />
        </mxCell>
        <mxCell id="o92Cv8JYWG6bi7Cdgzpr-25" style="edgeStyle=orthogonalEdgeStyle;rounded=0;orthogonalLoop=1;jettySize=auto;html=1;exitX=0.5;exitY=1;exitDx=0;exitDy=0;startArrow=classic;startFill=1;" edge="1" parent="1" source="o92Cv8JYWG6bi7Cdgzpr-26" target="o92Cv8JYWG6bi7Cdgzpr-31">
          <mxGeometry relative="1" as="geometry" />
        </mxCell>
        <mxCell id="o92Cv8JYWG6bi7Cdgzpr-26" value="Master B" style="rounded=1;whiteSpace=wrap;html=1;" vertex="1" parent="1">
          <mxGeometry x="499" y="920" width="120" height="60" as="geometry" />
        </mxCell>
        <mxCell id="o92Cv8JYWG6bi7Cdgzpr-27" value="Multi-master&lt;div&gt;replication&lt;/div&gt;" style="text;html=1;align=center;verticalAlign=middle;resizable=0;points=[];autosize=1;strokeColor=none;fillColor=none;" vertex="1" parent="1">
          <mxGeometry x="409" y="915" width="90" height="40" as="geometry" />
        </mxCell>
        <mxCell id="o92Cv8JYWG6bi7Cdgzpr-28" value="Slave A1" style="rounded=1;whiteSpace=wrap;html=1;" vertex="1" parent="1">
          <mxGeometry x="270" y="1020" width="80" height="60" as="geometry" />
        </mxCell>
        <mxCell id="o92Cv8JYWG6bi7Cdgzpr-29" value="Slave A2" style="rounded=1;whiteSpace=wrap;html=1;" vertex="1" parent="1">
          <mxGeometry x="360" y="1020" width="80" height="60" as="geometry" />
        </mxCell>
        <mxCell id="o92Cv8JYWG6bi7Cdgzpr-30" value="Slave B1" style="rounded=1;whiteSpace=wrap;html=1;" vertex="1" parent="1">
          <mxGeometry x="474" y="1020" width="80" height="60" as="geometry" />
        </mxCell>
        <mxCell id="o92Cv8JYWG6bi7Cdgzpr-31" value="Slave B2" style="rounded=1;whiteSpace=wrap;html=1;" vertex="1" parent="1">
          <mxGeometry x="564" y="1020" width="80" height="60" as="geometry" />
        </mxCell>
        <mxCell id="o92Cv8JYWG6bi7Cdgzpr-33" style="edgeStyle=orthogonalEdgeStyle;rounded=0;orthogonalLoop=1;jettySize=auto;html=1;exitX=0.5;exitY=1;exitDx=0;exitDy=0;entryX=0.5;entryY=0;entryDx=0;entryDy=0;" edge="1" parent="1" source="o92Cv8JYWG6bi7Cdgzpr-32" target="o92Cv8JYWG6bi7Cdgzpr-5">
          <mxGeometry relative="1" as="geometry" />
        </mxCell>
        <mxCell id="o92Cv8JYWG6bi7Cdgzpr-32" value="Redis Cluster&#xa;(Cache-Aside)" style="rounded=1;whiteSpace=wrap;" vertex="1" parent="1">
          <mxGeometry x="394" y="540" width="120" height="60" as="geometry" />
        </mxCell>
      </root>
    </mxGraphModel>
  </diagram>
</mxfile>
